<svg width="500" height="500" viewBox="0 0 500 500" fill="none" xmlns="http://www.w3.org/2000/svg">
<g clip-path="url(#clip0_42_7)">
<path d="M186.342 254.033C186.476 261.339 189.47 268.3 194.679 273.422C199.889 278.545 206.899 281.421 214.205 281.433L277.363 280.902C284.668 280.768 291.629 277.775 296.752 272.565C301.874 267.356 304.75 260.345 304.762 253.039L303.512 104.224C335.469 115.964 363.088 137.163 382.691 164.998C402.293 192.832 412.947 225.98 413.233 260.023C413.519 294.066 403.423 327.388 384.291 355.548C365.159 383.708 337.899 405.368 306.145 417.643L308.435 690.404C308.567 706.107 302.455 721.22 291.445 732.417C280.434 743.615 265.426 749.979 249.722 750.111C234.019 750.243 218.906 744.131 207.709 733.12C196.512 722.11 190.147 707.102 190.015 691.398L187.724 418.637C155.768 406.898 128.148 385.698 108.546 357.864C88.9435 330.029 78.2893 296.882 78.0034 262.838C77.7174 228.795 87.8132 195.473 106.945 167.314C126.078 139.154 264.504 37.8425 296.259 25.5681L186.339 253.639L186.342 254.033Z" fill="#34D399" fill-opacity="0.8" stroke="#000A01" stroke-width="24" stroke-linecap="round" stroke-linejoin="round"/>
</g>
<defs>
<clipPath id="clip0_42_7">
<rect width="500" height="500" fill="white"/>
</clipPath>
</defs>
</svg>
